<svg width="47" height="29" viewBox="0 0 47 29" fill="none" xmlns="http://www.w3.org/2000/svg">
<path d="M47.0002 14.4613C47.0002 22.2201 40.7336 28.5613 32.9002 28.5613C25.1415 28.5613 18.8002 22.2201 18.8002 14.4613C18.8002 6.7026 25.0669 0.361328 32.8256 0.361328C40.7336 0.361328 47.0002 6.7026 47.0002 14.4613Z" fill="#FFB600"/>
<path d="M32.9002 0.361328C40.659 0.361328 47.0002 6.7026 47.0002 14.4613C47.0002 22.2201 40.7336 28.5613 32.9002 28.5613C25.1415 28.5613 18.8002 22.2201 18.8002 14.4613" fill="#F7981D"/>
<path d="M32.9003 0.361328C40.659 0.361328 47.0003 6.7026 47.0003 14.4613C47.0003 22.2201 40.7336 28.5613 32.9003 28.5613" fill="#FF8500"/>
<path d="M13.9508 0.361328C6.26667 0.435931 0 6.7026 0 14.4613C0 22.2201 6.26667 28.5613 14.1 28.5613C17.7556 28.5613 21.0381 27.1439 23.5746 24.9058C24.0968 24.4582 24.5444 23.9359 24.9921 23.4137H22.0825C21.7095 22.9661 21.3365 22.4439 21.0381 21.9962H26.0365C26.3349 21.5486 26.6333 21.0264 26.8571 20.5042H20.2175C19.9937 20.0566 19.7698 19.5343 19.6206 19.0121H27.3794C27.827 17.5947 28.1254 16.1026 28.1254 14.5359C28.1254 13.4915 27.9762 12.5216 27.827 11.5518H19.173C19.2476 11.0296 19.3968 10.582 19.546 10.0597H27.3048C27.1556 9.53752 26.9317 9.0153 26.7079 8.56768H20.1429C20.3667 8.04546 20.6651 7.59784 20.9635 7.07561H25.9619C25.6635 6.55339 25.2905 6.03117 24.8429 5.58355H22.0825C22.5302 5.06133 22.9778 4.61371 23.5 4.16609C21.0381 1.85339 17.681 0.510534 14.0254 0.510534C14.0254 0.361328 14.0254 0.361328 13.9508 0.361328Z" fill="#FF5050"/>
<path d="M0 14.4615C0 22.2203 6.26667 28.5615 14.1 28.5615C17.7556 28.5615 21.0381 27.1441 23.5746 24.906C24.0968 24.4584 24.5444 23.9361 24.9921 23.4139H22.0825C21.7095 22.9663 21.3365 22.4441 21.0381 21.9965H26.0365C26.3349 21.5488 26.6333 21.0266 26.8571 20.5044H20.2175C19.9937 20.0568 19.7698 19.5346 19.6206 19.0123H27.3794C27.827 17.5949 28.1254 16.1028 28.1254 14.5361C28.1254 13.4917 27.9762 12.5219 27.827 11.552H19.173C19.2476 11.0298 19.3968 10.5822 19.546 10.0599H27.3048C27.1556 9.53773 26.9317 9.0155 26.7079 8.56789H20.1429C20.3667 8.04566 20.6651 7.59804 20.9635 7.07582H25.9619C25.6635 6.5536 25.2905 6.03138 24.8429 5.58376H22.0825C22.5302 5.06154 22.9778 4.61392 23.5 4.1663C21.0381 1.8536 17.681 0.510742 14.0254 0.510742H13.9508" fill="#E52836"/>
<path d="M14.1026 28.5615C17.7581 28.5615 21.0407 27.1441 23.5772 24.906C24.0994 24.4584 24.547 23.9361 24.9946 23.4139H22.0851C21.7121 22.9663 21.3391 22.4441 21.0407 21.9965H26.0391C26.3375 21.5488 26.6359 21.0266 26.8597 20.5044H20.22C19.9962 20.0568 19.7724 19.5346 19.6232 19.0123H27.3819C27.8296 17.5949 28.128 16.1028 28.128 14.5361C28.128 13.4917 27.9788 12.5219 27.8296 11.552H19.1756C19.2502 11.0298 19.3994 10.5822 19.5486 10.0599H27.3073C27.1581 9.53773 26.9343 9.0155 26.7105 8.56789H20.1454C20.3692 8.04566 20.6677 7.59804 20.9661 7.07582H25.9645C25.6661 6.5536 25.293 6.03138 24.8454 5.58376H22.0851C22.5327 5.06154 22.9804 4.61392 23.5026 4.1663C21.0407 1.8536 17.6835 0.510742 14.028 0.510742H13.9534" fill="#CB2026"/>
<path d="M19.1012 18.0421L19.325 16.7739C19.2504 16.7739 19.1012 16.8485 18.952 16.8485C18.4297 16.8485 18.3551 16.5501 18.4297 16.4009L18.8774 13.7897H19.698L19.9218 12.3723H19.1758L19.325 11.4771H17.8329C17.8329 11.4771 16.9377 16.4009 16.9377 16.9977C16.9377 17.8929 17.4599 18.2659 18.1313 18.2659C18.579 18.2659 18.952 18.1167 19.1012 18.0421Z" fill="white"/>
<path d="M19.6228 15.6547C19.6228 17.7436 21.0403 18.2658 22.2339 18.2658C23.353 18.2658 23.8006 18.042 23.8006 18.042L24.099 16.6245C24.099 16.6245 23.2784 16.9975 22.5323 16.9975C20.8911 16.9975 21.1895 15.8039 21.1895 15.8039H24.2482C24.2482 15.8039 24.472 14.834 24.472 14.461C24.472 13.4912 23.9498 12.2975 22.3085 12.2975C20.7419 12.1483 19.6228 13.7896 19.6228 15.6547ZM22.2339 13.4912C23.0545 13.4912 22.9053 14.461 22.9053 14.5356H21.2641C21.2641 14.461 21.4133 13.4912 22.2339 13.4912Z" fill="white"/>
<path d="M31.7123 18.0422L32.0107 16.4009C32.0107 16.4009 31.2647 16.7739 30.7425 16.7739C29.698 16.7739 29.2504 15.9533 29.2504 15.058C29.2504 13.2676 30.1456 12.2977 31.1901 12.2977C31.9361 12.2977 32.5329 12.7453 32.5329 12.7453L32.7568 11.1787C32.7568 11.1787 31.8615 10.8057 31.0409 10.8057C29.325 10.8057 27.6091 12.2977 27.6091 15.1326C27.6091 16.9977 28.5044 18.266 30.2948 18.266C30.8917 18.266 31.7123 18.0422 31.7123 18.0422Z" fill="white"/>
<path d="M10.8913 12.1484C9.84681 12.1484 9.10078 12.4468 9.10078 12.4468L8.87697 13.7151C8.87697 13.7151 9.5484 13.4167 10.5182 13.4167C11.0405 13.4167 11.4881 13.4913 11.4881 13.9389C11.4881 14.2373 11.4135 14.3119 11.4135 14.3119C11.4135 14.3119 10.9659 14.3119 10.742 14.3119C9.4738 14.3119 8.05634 14.8342 8.05634 16.55C8.05634 17.8929 8.95157 18.1913 9.4738 18.1913C10.5182 18.1913 10.9659 17.5199 11.0405 17.5199L10.9659 18.1167H12.3087L12.9055 14.0135C12.9055 12.223 11.4135 12.1484 10.8913 12.1484ZM11.1897 15.5056C11.1897 15.7294 11.0405 16.923 10.1452 16.923C9.69761 16.923 9.5484 16.55 9.5484 16.3262C9.5484 15.9532 9.77221 15.431 10.8913 15.431C11.1151 15.5056 11.1897 15.5056 11.1897 15.5056Z" fill="white"/>
<path d="M14.3251 18.1912C14.6981 18.1912 16.5632 18.2658 16.5632 16.2515C16.5632 14.3864 14.7727 14.7594 14.7727 14.0134C14.7727 13.6404 15.0712 13.4912 15.5934 13.4912C15.8172 13.4912 16.6378 13.5658 16.6378 13.5658L16.8616 12.2229C16.8616 12.2229 16.3394 12.0737 15.4442 12.0737C14.3251 12.0737 13.2061 12.5213 13.2061 14.0134C13.2061 15.7293 15.0712 15.5801 15.0712 16.2515C15.0712 16.6991 14.5489 16.7737 14.1759 16.7737C13.5045 16.7737 12.8331 16.5499 12.8331 16.5499L12.6093 17.8928C12.6839 18.042 13.0569 18.1912 14.3251 18.1912Z" fill="white"/>
<path d="M44.093 10.9546L43.7945 12.9689C43.7945 12.9689 43.1977 12.2228 42.3771 12.2228C41.0342 12.2228 39.8406 13.8641 39.8406 15.8038C39.8406 16.9974 40.4374 18.2657 41.7057 18.2657C42.6009 18.2657 43.1231 17.6689 43.1231 17.6689L43.0485 18.1911H44.5406L45.6596 11.0292L44.093 10.9546ZM43.4215 14.9086C43.4215 15.7292 43.0485 16.7736 42.2279 16.7736C41.7057 16.7736 41.4072 16.326 41.4072 15.58C41.4072 14.3863 41.9295 13.6403 42.6009 13.6403C43.1231 13.6403 43.4215 14.0133 43.4215 14.9086Z" fill="white"/>
<path d="M2.76322 18.1165L3.65846 12.7451L3.80767 18.1165H4.85211L6.7918 12.7451L5.97116 18.1165H7.53783L8.73148 10.9546H6.26957L4.77751 15.3562L4.70291 10.9546H2.53942L1.34576 18.1165H2.76322Z" fill="white"/>
<path d="M25.8906 18.1169C26.3382 15.655 26.4128 13.6407 27.4573 14.0137C27.6065 13.0439 27.8303 12.6709 27.9795 12.2979C27.9795 12.2979 27.9049 12.2979 27.6811 12.2979C27.0096 12.2979 26.4874 13.1931 26.4874 13.1931L26.6366 12.3725H25.2192L24.2493 18.1915H25.8906V18.1169Z" fill="white"/>
<path d="M35.1435 12.1484C34.0991 12.1484 33.353 12.4468 33.353 12.4468L33.1292 13.7151C33.1292 13.7151 33.8007 13.4167 34.7705 13.4167C35.2927 13.4167 35.7403 13.4913 35.7403 13.9389C35.7403 14.2373 35.6657 14.3119 35.6657 14.3119C35.6657 14.3119 35.2181 14.3119 34.9943 14.3119C33.7261 14.3119 32.3086 14.8342 32.3086 16.55C32.3086 17.8929 33.2038 18.1913 33.7261 18.1913C34.7705 18.1913 35.2181 17.5199 35.2927 17.5199L35.2181 18.1167H36.561L37.1578 14.0135C37.2324 12.223 35.6657 12.1484 35.1435 12.1484ZM35.5165 15.5056C35.5165 15.7294 35.3673 16.923 34.4721 16.923C34.0245 16.923 33.8753 16.55 33.8753 16.3262C33.8753 15.9532 34.0991 15.431 35.2181 15.431C35.4419 15.5056 35.4419 15.5056 35.5165 15.5056Z" fill="white"/>
<path d="M38.425 18.1169C38.8726 15.655 38.9472 13.6407 39.9917 14.0137C40.1409 13.0439 40.3647 12.6709 40.5139 12.2979C40.5139 12.2979 40.4393 12.2979 40.2155 12.2979C39.5441 12.2979 39.0218 13.1931 39.0218 13.1931L39.1711 12.3725H37.7536L36.7838 18.1915H38.425V18.1169Z" fill="white"/>
<path d="M16.7904 16.9977C16.7904 17.8929 17.3126 18.2659 17.9841 18.2659C18.5063 18.2659 18.9539 18.1167 19.1031 18.0421L19.3269 16.7739C19.2523 16.7739 19.1031 16.8485 18.9539 16.8485C18.4317 16.8485 18.3571 16.5501 18.4317 16.4009L18.8793 13.7897H19.6999L19.9237 12.3723H19.1777L19.3269 11.4771" fill="#DCE5E5"/>
<path d="M20.3705 15.6547C20.3705 17.7436 21.0419 18.2658 22.2356 18.2658C23.3546 18.2658 23.8022 18.042 23.8022 18.042L24.1006 16.6245C24.1006 16.6245 23.28 16.9975 22.534 16.9975C20.8927 16.9975 21.1911 15.8039 21.1911 15.8039H24.2498C24.2498 15.8039 24.4737 14.834 24.4737 14.461C24.4737 13.4912 23.9514 12.2975 22.3102 12.2975C20.7435 12.1483 20.3705 13.7896 20.3705 15.6547ZM22.2356 13.4912C23.0562 13.4912 23.2054 14.461 23.2054 14.5356H21.2657C21.2657 14.461 21.4149 13.4912 22.2356 13.4912Z" fill="#DCE5E5"/>
<path d="M31.7098 18.0422L32.0082 16.4009C32.0082 16.4009 31.2622 16.7739 30.74 16.7739C29.6955 16.7739 29.2479 15.9533 29.2479 15.058C29.2479 13.2676 30.1431 12.2977 31.1876 12.2977C31.9336 12.2977 32.5304 12.7453 32.5304 12.7453L32.7542 11.1787C32.7542 11.1787 31.859 10.8057 31.0384 10.8057C29.3225 10.8057 28.3527 12.2977 28.3527 15.1326C28.3527 16.9977 28.5019 18.266 30.2923 18.266C30.8892 18.266 31.7098 18.0422 31.7098 18.0422Z" fill="#DCE5E5"/>
<path d="M8.87697 13.7899C8.87697 13.7899 9.5484 13.4915 10.5182 13.4915C11.0405 13.4915 11.4881 13.5661 11.4881 14.0137C11.4881 14.3121 11.4135 14.3867 11.4135 14.3867C11.4135 14.3867 10.9659 14.3867 10.742 14.3867C9.4738 14.3867 8.05634 14.909 8.05634 16.6248C8.05634 17.9677 8.95157 18.2661 9.4738 18.2661C10.5182 18.2661 10.9659 17.5947 11.0405 17.5947L10.9659 18.1915H12.3087L12.9055 14.0883C12.9055 12.3725 11.4135 12.2979 10.8167 12.2979L8.87697 13.7899ZM11.9357 15.5058C11.9357 15.7296 11.0405 16.9232 10.1452 16.9232C9.69761 16.9232 9.5484 16.5502 9.5484 16.3264C9.5484 15.9534 9.77221 15.4312 10.8913 15.4312C11.1151 15.5058 11.9357 15.5058 11.9357 15.5058Z" fill="#DCE5E5"/>
<path d="M12.6829 18.042C12.6829 18.042 13.1305 18.1912 14.3987 18.1912C14.7717 18.1912 16.6368 18.2658 16.6368 16.2515C16.6368 14.3864 14.8464 14.7594 14.8464 14.0134C14.8464 13.6404 15.1448 13.4912 15.667 13.4912C15.8908 13.4912 16.7114 13.5658 16.7114 13.5658L16.9352 12.2229C16.9352 12.2229 16.413 12.0737 15.5178 12.0737C14.3987 12.0737 14.0257 12.5213 14.0257 14.0134C14.0257 15.7293 15.1448 15.5801 15.1448 16.2515C15.1448 16.6991 14.6225 16.7737 14.2495 16.7737" fill="#DCE5E5"/>
<path d="M43.7933 12.969C43.7933 12.969 43.1965 12.2229 42.3758 12.2229C41.033 12.2229 40.5854 13.8642 40.5854 15.8039C40.5854 16.9976 40.4362 18.2658 41.7044 18.2658C42.5997 18.2658 43.1219 17.669 43.1219 17.669L43.0473 18.1912H44.5393L45.6584 11.0293L43.7933 12.969ZM43.7187 14.9087C43.7187 15.7293 43.0473 16.7737 42.2266 16.7737C41.7044 16.7737 41.406 16.3261 41.406 15.5801C41.406 14.3864 41.9282 13.6404 42.5997 13.6404C43.1219 13.6404 43.7187 14.0134 43.7187 14.9087Z" fill="#DCE5E5"/>
<path d="M2.76322 18.1165L3.65846 12.7451L3.80767 18.1165H4.85211L6.7918 12.7451L5.97116 18.1165H7.53783L8.73148 10.9546H6.8664L4.77751 15.3562L4.70291 10.9546H3.88227L1.34576 18.1165H2.76322Z" fill="#DCE5E5"/>
<path d="M24.3223 18.1169H25.8889C26.3366 15.655 26.4112 13.6407 27.4556 14.0137C27.6048 13.0439 27.8286 12.6709 27.9778 12.2979C27.9778 12.2979 27.9032 12.2979 27.6794 12.2979C27.008 12.2979 26.4858 13.1931 26.4858 13.1931L26.635 12.3725" fill="#DCE5E5"/>
<path d="M33.1292 13.7899C33.1292 13.7899 33.8007 13.4915 34.7705 13.4915C35.2927 13.4915 35.7403 13.5661 35.7403 14.0137C35.7403 14.3121 35.6657 14.3867 35.6657 14.3867C35.6657 14.3867 35.2181 14.3867 34.9943 14.3867C33.7261 14.3867 32.3086 14.909 32.3086 16.6248C32.3086 17.9677 33.2038 18.2661 33.7261 18.2661C34.7705 18.2661 35.2181 17.5947 35.2927 17.5947L35.2181 18.1915H36.561L37.1578 14.0883C37.1578 12.3725 35.6657 12.2979 35.0689 12.2979L33.1292 13.7899ZM36.188 15.5058C36.188 15.7296 35.2927 16.9232 34.3975 16.9232C33.9499 16.9232 33.8007 16.5502 33.8007 16.3264C33.8007 15.9534 34.0245 15.4312 35.1435 15.4312C35.4419 15.5058 36.188 15.5058 36.188 15.5058Z" fill="#DCE5E5"/>
<path d="M36.8574 18.1169H38.4241C38.8717 15.655 38.9463 13.6407 39.9908 14.0137C40.14 13.0439 40.3638 12.6709 40.513 12.2979C40.513 12.2979 40.4384 12.2979 40.2146 12.2979C39.5431 12.2979 39.0209 13.1931 39.0209 13.1931L39.1701 12.3725" fill="#DCE5E5"/>
</svg>
